<mxfile host="app.diagrams.net" modified="2023-10-04T20:22:27.003Z" agent="Mozilla/5.0 (Windows NT 10.0; Win64; x64) AppleWebKit/537.36 (KHTML, like Gecko) Chrome/117.0.0.0 Safari/537.36" etag="IrRP5YoMB-rqyIR6AssF" version="22.0.2" type="github">
  <diagram name="Page-1" id="2YBvvXClWsGukQMizWep">
    <mxGraphModel dx="2140" dy="566" grid="1" gridSize="10" guides="1" tooltips="1" connect="1" arrows="1" fold="1" page="1" pageScale="1" pageWidth="850" pageHeight="1100" math="0" shadow="0">
      <root>
        <mxCell id="0" />
        <mxCell id="1" parent="0" />
        <mxCell id="hPwz4SWx86SpTgj-OJKq-4" value="Alternate Scenarios" style="shape=table;startSize=30;container=1;collapsible=1;childLayout=tableLayout;fixedRows=1;rowLines=0;fontStyle=1;align=center;resizeLast=1;html=1;whiteSpace=wrap;" parent="1" vertex="1">
          <mxGeometry x="-250" y="550" width="1270" height="290" as="geometry" />
        </mxCell>
        <mxCell id="hPwz4SWx86SpTgj-OJKq-8" value="" style="shape=tableRow;horizontal=0;startSize=0;swimlaneHead=0;swimlaneBody=0;fillColor=none;collapsible=0;dropTarget=0;points=[[0,0.5],[1,0.5]];portConstraint=eastwest;top=0;left=0;right=0;bottom=1;html=1;" parent="hPwz4SWx86SpTgj-OJKq-4" vertex="1">
          <mxGeometry y="30" width="1270" height="120" as="geometry" />
        </mxCell>
        <mxCell id="hPwz4SWx86SpTgj-OJKq-9" value="If account does not exist under the entered info" style="shape=partialRectangle;connectable=0;fillColor=none;top=0;left=0;bottom=0;right=0;fontStyle=1;overflow=hidden;html=1;whiteSpace=wrap;" parent="hPwz4SWx86SpTgj-OJKq-8" vertex="1">
          <mxGeometry width="190" height="120" as="geometry">
            <mxRectangle width="190" height="120" as="alternateBounds" />
          </mxGeometry>
        </mxCell>
        <mxCell id="hPwz4SWx86SpTgj-OJKq-10" value="" style="shape=partialRectangle;connectable=0;fillColor=none;top=0;left=0;bottom=0;right=0;align=left;spacingLeft=6;fontStyle=5;overflow=hidden;html=1;whiteSpace=wrap;" parent="hPwz4SWx86SpTgj-OJKq-8" vertex="1">
          <mxGeometry x="190" width="1080" height="120" as="geometry">
            <mxRectangle width="1080" height="120" as="alternateBounds" />
          </mxGeometry>
        </mxCell>
        <mxCell id="hPwz4SWx86SpTgj-OJKq-11" value="" style="shape=tableRow;horizontal=0;startSize=0;swimlaneHead=0;swimlaneBody=0;fillColor=none;collapsible=0;dropTarget=0;points=[[0,0.5],[1,0.5]];portConstraint=eastwest;top=0;left=0;right=0;bottom=0;html=1;" parent="hPwz4SWx86SpTgj-OJKq-4" vertex="1">
          <mxGeometry y="150" width="1270" height="140" as="geometry" />
        </mxCell>
        <mxCell id="hPwz4SWx86SpTgj-OJKq-12" value="If account exist under the entered info" style="shape=partialRectangle;connectable=0;fillColor=none;top=0;left=0;bottom=0;right=0;editable=1;overflow=hidden;html=1;whiteSpace=wrap;" parent="hPwz4SWx86SpTgj-OJKq-11" vertex="1">
          <mxGeometry width="190" height="140" as="geometry">
            <mxRectangle width="190" height="140" as="alternateBounds" />
          </mxGeometry>
        </mxCell>
        <mxCell id="hPwz4SWx86SpTgj-OJKq-13" value="" style="shape=partialRectangle;connectable=0;fillColor=none;top=0;left=0;bottom=0;right=0;align=left;spacingLeft=6;overflow=hidden;html=1;whiteSpace=wrap;" parent="hPwz4SWx86SpTgj-OJKq-11" vertex="1">
          <mxGeometry x="190" width="1080" height="140" as="geometry">
            <mxRectangle width="1080" height="140" as="alternateBounds" />
          </mxGeometry>
        </mxCell>
        <mxCell id="aM9ryv3xv72pqoxQDRHE-1" value="User" style="shape=umlLifeline;perimeter=lifelinePerimeter;whiteSpace=wrap;html=1;container=0;dropTarget=0;collapsible=0;recursiveResize=0;outlineConnect=0;portConstraint=eastwest;newEdgeStyle={&quot;edgeStyle&quot;:&quot;elbowEdgeStyle&quot;,&quot;elbow&quot;:&quot;vertical&quot;,&quot;curved&quot;:0,&quot;rounded&quot;:0};" parent="1" vertex="1">
          <mxGeometry x="-100" y="390" width="100" height="490" as="geometry" />
        </mxCell>
        <mxCell id="aM9ryv3xv72pqoxQDRHE-5" value="Patient Database" style="shape=umlLifeline;perimeter=lifelinePerimeter;whiteSpace=wrap;html=1;container=0;dropTarget=0;collapsible=0;recursiveResize=0;outlineConnect=0;portConstraint=eastwest;newEdgeStyle={&quot;edgeStyle&quot;:&quot;elbowEdgeStyle&quot;,&quot;elbow&quot;:&quot;vertical&quot;,&quot;curved&quot;:0,&quot;rounded&quot;:0};" parent="1" vertex="1">
          <mxGeometry x="830" y="390" width="120" height="490" as="geometry" />
        </mxCell>
        <mxCell id="aM9ryv3xv72pqoxQDRHE-7" value="User clicks the &quot;Register&quot; button" style="html=1;verticalAlign=bottom;endArrow=block;edgeStyle=elbowEdgeStyle;elbow=vertical;curved=0;rounded=0;entryX=-0.04;entryY=0.635;entryDx=0;entryDy=0;entryPerimeter=0;" parent="1" target="Wur9L_ayajolzZbg7pai-1" edge="1" source="Wur9L_ayajolzZbg7pai-17">
          <mxGeometry relative="1" as="geometry">
            <mxPoint x="-50" y="490" as="sourcePoint" />
            <Array as="points" />
            <mxPoint x="234.5" y="490" as="targetPoint" />
          </mxGeometry>
        </mxCell>
        <mxCell id="R3fOsro8TMt8DzRH_CVn-1" value="Log-in/Registration Page" style="shape=umlLifeline;perimeter=lifelinePerimeter;whiteSpace=wrap;html=1;container=0;dropTarget=0;collapsible=0;recursiveResize=0;outlineConnect=0;portConstraint=eastwest;newEdgeStyle={&quot;edgeStyle&quot;:&quot;elbowEdgeStyle&quot;,&quot;elbow&quot;:&quot;vertical&quot;,&quot;curved&quot;:0,&quot;rounded&quot;:0};" parent="1" vertex="1">
          <mxGeometry x="160" y="390" width="150" height="490" as="geometry" />
        </mxCell>
        <mxCell id="R3fOsro8TMt8DzRH_CVn-6" value="Login/Authorization Module" style="shape=umlLifeline;perimeter=lifelinePerimeter;whiteSpace=wrap;html=1;container=0;dropTarget=0;collapsible=0;recursiveResize=0;outlineConnect=0;portConstraint=eastwest;newEdgeStyle={&quot;edgeStyle&quot;:&quot;elbowEdgeStyle&quot;,&quot;elbow&quot;:&quot;vertical&quot;,&quot;curved&quot;:0,&quot;rounded&quot;:0};" parent="1" vertex="1">
          <mxGeometry x="510" y="390" width="110" height="500" as="geometry" />
        </mxCell>
        <mxCell id="R3fOsro8TMt8DzRH_CVn-7" value="User enters their info to create account" style="html=1;verticalAlign=bottom;endArrow=block;edgeStyle=elbowEdgeStyle;elbow=vertical;curved=0;rounded=0;entryX=-0.04;entryY=0.865;entryDx=0;entryDy=0;entryPerimeter=0;" parent="1" edge="1" target="Wur9L_ayajolzZbg7pai-1">
          <mxGeometry relative="1" as="geometry">
            <mxPoint x="-50" y="510" as="sourcePoint" />
            <Array as="points">
              <mxPoint x="-44.5" y="510" />
            </Array>
            <mxPoint x="235" y="510.41999999999996" as="targetPoint" />
          </mxGeometry>
        </mxCell>
        <mxCell id="jzckfqYeWctJtNmcKv05-1" value="Sends user input" style="html=1;verticalAlign=bottom;endArrow=block;edgeStyle=elbowEdgeStyle;elbow=vertical;curved=0;rounded=0;entryX=0;entryY=0.5;entryDx=0;entryDy=0;" parent="1" target="Wur9L_ayajolzZbg7pai-5" edge="1">
          <mxGeometry relative="1" as="geometry">
            <mxPoint x="234.5" y="514.5" as="sourcePoint" />
            <Array as="points">
              <mxPoint x="400" y="515" />
              <mxPoint x="285.5" y="424.5" />
            </Array>
            <mxPoint x="530" y="515" as="targetPoint" />
          </mxGeometry>
        </mxCell>
        <mxCell id="R3fOsro8TMt8DzRH_CVn-5" value="Registration Complete" style="html=1;verticalAlign=bottom;endArrow=block;edgeStyle=elbowEdgeStyle;elbow=vertical;curved=0;rounded=0;" parent="1" source="R3fOsro8TMt8DzRH_CVn-1" edge="1">
          <mxGeometry relative="1" as="geometry">
            <mxPoint x="170" y="690" as="sourcePoint" />
            <Array as="points">
              <mxPoint x="130.5" y="690" />
              <mxPoint x="250.5" y="680" />
            </Array>
            <mxPoint x="-40" y="690" as="targetPoint" />
          </mxGeometry>
        </mxCell>
        <mxCell id="hPwz4SWx86SpTgj-OJKq-1" value="Send verification email" style="html=1;verticalAlign=bottom;endArrow=block;edgeStyle=elbowEdgeStyle;elbow=vertical;curved=0;rounded=0;entryX=1;entryY=0.25;entryDx=0;entryDy=0;" parent="1" source="R3fOsro8TMt8DzRH_CVn-6" edge="1" target="Wur9L_ayajolzZbg7pai-6">
          <mxGeometry relative="1" as="geometry">
            <mxPoint x="510" y="654.29" as="sourcePoint" />
            <Array as="points">
              <mxPoint x="456" y="654.29" />
              <mxPoint x="576" y="644.29" />
            </Array>
            <mxPoint x="280" y="660" as="targetPoint" />
          </mxGeometry>
        </mxCell>
        <mxCell id="R3fOsro8TMt8DzRH_CVn-8" value="Info entered by user is checked" style="html=1;verticalAlign=bottom;endArrow=block;edgeStyle=elbowEdgeStyle;elbow=vertical;curved=0;rounded=0;" parent="1" edge="1" source="Wur9L_ayajolzZbg7pai-31">
          <mxGeometry relative="1" as="geometry">
            <mxPoint x="569.0714285714284" y="520" as="sourcePoint" />
            <Array as="points">
              <mxPoint x="725" y="520" />
            </Array>
            <mxPoint x="885" y="520" as="targetPoint" />
          </mxGeometry>
        </mxCell>
        <mxCell id="R3fOsro8TMt8DzRH_CVn-9" value="Validation success" style="html=1;verticalAlign=bottom;endArrow=open;dashed=1;endSize=8;edgeStyle=elbowEdgeStyle;elbow=vertical;curved=0;rounded=0;" parent="1" edge="1" source="Wur9L_ayajolzZbg7pai-8">
          <mxGeometry x="-0.9934" y="-160" relative="1" as="geometry">
            <mxPoint x="560.0014285714285" y="629.5714285714287" as="targetPoint" />
            <Array as="points" />
            <mxPoint x="892.1099999999999" y="630" as="sourcePoint" />
            <mxPoint as="offset" />
          </mxGeometry>
        </mxCell>
        <mxCell id="jzckfqYeWctJtNmcKv05-17" value="Display message" style="html=1;verticalAlign=bottom;endArrow=block;edgeStyle=elbowEdgeStyle;elbow=vertical;curved=0;rounded=0;exitX=0.12;exitY=0.87;exitDx=0;exitDy=0;exitPerimeter=0;" parent="1" edge="1" source="Wur9L_ayajolzZbg7pai-19">
          <mxGeometry relative="1" as="geometry">
            <mxPoint x="215" y="820" as="sourcePoint" />
            <Array as="points">
              <mxPoint x="110.5" y="820" />
              <mxPoint x="230.5" y="810" />
            </Array>
            <mxPoint x="-40" y="820" as="targetPoint" />
          </mxGeometry>
        </mxCell>
        <mxCell id="jzckfqYeWctJtNmcKv05-15" value="Return &quot;Account already Exists&quot; message" style="html=1;verticalAlign=bottom;endArrow=open;dashed=1;endSize=8;edgeStyle=elbowEdgeStyle;elbow=vertical;curved=0;rounded=0;entryX=1;entryY=0.25;entryDx=0;entryDy=0;" parent="1" edge="1" target="Wur9L_ayajolzZbg7pai-19">
          <mxGeometry relative="1" as="geometry">
            <mxPoint x="270" y="770" as="targetPoint" />
            <Array as="points" />
            <mxPoint x="566.18" y="770.4300000000001" as="sourcePoint" />
          </mxGeometry>
        </mxCell>
        <mxCell id="jzckfqYeWctJtNmcKv05-16" value="Validation failed" style="html=1;verticalAlign=bottom;endArrow=open;dashed=1;endSize=8;edgeStyle=elbowEdgeStyle;elbow=vertical;curved=0;rounded=0;entryX=1.52;entryY=0.38;entryDx=0;entryDy=0;entryPerimeter=0;" parent="1" target="Wur9L_ayajolzZbg7pai-15" edge="1">
          <mxGeometry relative="1" as="geometry">
            <mxPoint x="580" y="740" as="targetPoint" />
            <Array as="points" />
            <mxPoint x="890.5" y="740.55" as="sourcePoint" />
          </mxGeometry>
        </mxCell>
        <mxCell id="vaZpkd1_GssyxPdpcU1r-1" value="Verify email" style="html=1;verticalAlign=bottom;endArrow=open;dashed=1;endSize=8;edgeStyle=elbowEdgeStyle;elbow=vertical;curved=0;rounded=0;entryX=0;entryY=0.5;entryDx=0;entryDy=0;" parent="1" target="Wur9L_ayajolzZbg7pai-6" edge="1">
          <mxGeometry relative="1" as="geometry">
            <mxPoint x="200" y="670" as="targetPoint" />
            <Array as="points">
              <mxPoint y="670" />
            </Array>
            <mxPoint x="-50" y="670" as="sourcePoint" />
          </mxGeometry>
        </mxCell>
        <mxCell id="Wur9L_ayajolzZbg7pai-1" value="" style="rounded=0;whiteSpace=wrap;html=1;" vertex="1" parent="1">
          <mxGeometry x="230" y="440" width="10" height="80" as="geometry" />
        </mxCell>
        <mxCell id="Wur9L_ayajolzZbg7pai-5" value="" style="rounded=0;whiteSpace=wrap;html=1;" vertex="1" parent="1">
          <mxGeometry x="560" y="500" width="10" height="30" as="geometry" />
        </mxCell>
        <mxCell id="Wur9L_ayajolzZbg7pai-6" value="" style="rounded=0;whiteSpace=wrap;html=1;" vertex="1" parent="1">
          <mxGeometry x="230" y="640" width="10" height="60" as="geometry" />
        </mxCell>
        <mxCell id="Wur9L_ayajolzZbg7pai-9" value="" style="html=1;verticalAlign=bottom;endArrow=open;dashed=1;endSize=8;edgeStyle=elbowEdgeStyle;elbow=vertical;curved=0;rounded=0;" edge="1" parent="1" target="Wur9L_ayajolzZbg7pai-8">
          <mxGeometry relative="1" as="geometry">
            <mxPoint x="560.0014285714285" y="629.5714285714287" as="targetPoint" />
            <Array as="points" />
            <mxPoint x="892.1099999999999" y="630" as="sourcePoint" />
          </mxGeometry>
        </mxCell>
        <mxCell id="Wur9L_ayajolzZbg7pai-8" value="" style="rounded=0;whiteSpace=wrap;html=1;" vertex="1" parent="1">
          <mxGeometry x="560" y="595" width="10" height="80" as="geometry" />
        </mxCell>
        <mxCell id="Wur9L_ayajolzZbg7pai-10" value="" style="rounded=0;whiteSpace=wrap;html=1;" vertex="1" parent="1">
          <mxGeometry x="885" y="590" width="10" height="60" as="geometry" />
        </mxCell>
        <mxCell id="Wur9L_ayajolzZbg7pai-14" value="" style="rounded=0;whiteSpace=wrap;html=1;" vertex="1" parent="1">
          <mxGeometry x="-55" y="650" width="10" height="50" as="geometry" />
        </mxCell>
        <mxCell id="Wur9L_ayajolzZbg7pai-15" value="" style="rounded=0;whiteSpace=wrap;html=1;" vertex="1" parent="1">
          <mxGeometry x="560" y="720" width="10" height="60" as="geometry" />
        </mxCell>
        <mxCell id="Wur9L_ayajolzZbg7pai-18" value="" style="html=1;verticalAlign=bottom;endArrow=block;edgeStyle=elbowEdgeStyle;elbow=vertical;curved=0;rounded=0;entryX=-0.04;entryY=0.635;entryDx=0;entryDy=0;entryPerimeter=0;" edge="1" parent="1" target="Wur9L_ayajolzZbg7pai-17">
          <mxGeometry relative="1" as="geometry">
            <mxPoint x="-50" y="490" as="sourcePoint" />
            <Array as="points" />
            <mxPoint x="230" y="491" as="targetPoint" />
          </mxGeometry>
        </mxCell>
        <mxCell id="Wur9L_ayajolzZbg7pai-17" value="" style="rounded=0;whiteSpace=wrap;html=1;" vertex="1" parent="1">
          <mxGeometry x="-55" y="450" width="10" height="80" as="geometry" />
        </mxCell>
        <mxCell id="Wur9L_ayajolzZbg7pai-19" value="" style="rounded=0;whiteSpace=wrap;html=1;" vertex="1" parent="1">
          <mxGeometry x="230" y="750" width="10" height="80" as="geometry" />
        </mxCell>
        <mxCell id="Wur9L_ayajolzZbg7pai-20" value="" style="rounded=0;whiteSpace=wrap;html=1;" vertex="1" parent="1">
          <mxGeometry x="-55" y="800" width="10" height="30" as="geometry" />
        </mxCell>
        <mxCell id="Wur9L_ayajolzZbg7pai-30" value="Info entered by user is saved" style="html=1;verticalAlign=bottom;endArrow=block;edgeStyle=elbowEdgeStyle;elbow=vertical;curved=0;rounded=0;" edge="1" parent="1">
          <mxGeometry relative="1" as="geometry">
            <mxPoint x="569.0714285714284" y="610" as="sourcePoint" />
            <Array as="points">
              <mxPoint x="725" y="610" />
            </Array>
            <mxPoint x="885" y="610" as="targetPoint" />
          </mxGeometry>
        </mxCell>
        <mxCell id="Wur9L_ayajolzZbg7pai-32" value="" style="html=1;verticalAlign=bottom;endArrow=block;edgeStyle=elbowEdgeStyle;elbow=vertical;curved=0;rounded=0;" edge="1" parent="1" target="Wur9L_ayajolzZbg7pai-31">
          <mxGeometry relative="1" as="geometry">
            <mxPoint x="569.0714285714284" y="520" as="sourcePoint" />
            <Array as="points" />
            <mxPoint x="885" y="520" as="targetPoint" />
          </mxGeometry>
        </mxCell>
        <mxCell id="Wur9L_ayajolzZbg7pai-31" value="" style="rounded=0;whiteSpace=wrap;html=1;" vertex="1" parent="1">
          <mxGeometry x="885" y="510" width="10" height="30" as="geometry" />
        </mxCell>
      </root>
    </mxGraphModel>
  </diagram>
</mxfile>
